<svg width="182" height="39" viewBox="0 0 182 39" fill="none" xmlns="http://www.w3.org/2000/svg">
<g clip-path="url(#clip0_3025_13309)">
<rect width="182" height="39"/>
<path d="M0.0155902 26.8708L6.18773 23.2917L6.17214 5.36875L0 8.94792L0.0155902 26.8708Z" fill="#ffffff"/>
<path d="M9.25976 5.37124L9.26443 10.7483L13.8937 8.06386L9.25976 5.37124Z" fill="#ffffff"/>
<path d="M15.435 5.37667L10.8014 2.68427L15.4303 0L15.435 5.37667Z" fill="#ffffff"/>
<path d="M9.27379 21.5021L9.26738 14.131L9.35449 14.2825L26.2411 4.49011L32.4195 8.08011L9.27379 21.5021Z" fill="#ffffff"/>
<path d="M23.1519 2.69511L18.518 0.00248589L18.5226 5.37959L23.1519 2.69511Z" fill="#ffffff"/>
<path d="M33.9656 10.7699L27.7935 14.3491L27.8091 32.272L33.9812 28.6928L33.9656 10.7699Z" fill="#ffffff"/>
<path d="M24.7215 32.2695L24.7168 26.8924L20.0875 29.5769L24.7215 32.2695Z" fill="#ffffff"/>
<path d="M18.5462 32.2641L23.1798 34.9565L18.5509 37.6407L18.5462 32.2641Z" fill="#ffffff"/>
<path d="M24.7074 16.1386L24.7138 23.5098L24.6267 23.3582L7.74011 33.1506L1.56176 29.5606L24.7074 16.1386Z" fill="#ffffff"/>
<path d="M10.8293 34.9456L15.4633 37.6382L15.4586 32.2611L10.8293 34.9456Z" fill="#ffffff"/>
<path d="M48.6211 3.65625H52.6466V4.38815H49.4576V9.92971H48.6211V3.65625Z" fill="#ffffff"/>
<path d="M54.0586 3.65925H54.6859L54.7905 4.60026C55.0519 4.23431 55.3656 3.97292 55.7315 3.81608C56.0452 3.65925 56.4634 3.55469 56.9339 3.55469C57.2999 3.55469 57.6658 3.60698 57.9272 3.76382C58.2409 3.86837 58.5023 4.07748 58.7114 4.33887C58.9205 4.60026 59.1296 4.91395 59.2342 5.2799C59.3387 5.64585 59.4433 6.06408 59.4433 6.58687V7.00509C59.4433 7.4756 59.391 7.89383 59.2342 8.31206C59.0774 8.73029 58.9205 8.99169 58.7114 9.25309C58.5023 9.51448 58.2409 9.72359 57.9272 9.82814C57.6135 9.98498 57.2999 10.0373 56.9339 10.0373C56.0452 10.0373 55.3656 9.72359 54.895 9.09624V12.4944H54.0586V3.65925ZM56.7771 9.25309C57.3522 9.25309 57.7704 9.04397 58.1363 8.67802C58.5023 8.31207 58.6591 7.73699 58.6591 6.95281V6.53458C58.6591 5.80268 58.5023 5.22761 58.1363 4.86166C57.7704 4.49571 57.3522 4.2866 56.7771 4.2866C56.202 4.2866 55.7838 4.49571 55.4178 4.86166C55.0519 5.22761 54.895 5.80269 54.895 6.58687V7.00509C54.895 7.73699 55.0519 8.31207 55.4178 8.67802C55.7838 9.09625 56.202 9.25309 56.7771 9.25309Z" fill="#ffffff"/>
<path d="M62.946 9.92971L60.332 3.65625H61.2208L63.3642 8.88413L65.3508 3.65625H66.1872L62.7891 12.4391H61.9527L62.946 9.92971Z" fill="#ffffff"/>
<path d="M67.7031 3.65625H72.6173V9.92971H71.7809V4.38815H68.5396V9.92971H67.7031V3.65625Z" fill="#ffffff"/>
<path d="M74.6562 3.65625H79.5705V9.92971H78.734V4.38815H75.4927V9.92971H74.6562V3.65625Z" fill="#ffffff"/>
<path d="M83.2826 10.0373C82.6029 10.0373 82.0801 9.88042 81.7142 9.56675C81.3482 9.25308 81.1914 8.78258 81.1914 8.20751C81.1914 7.63245 81.4005 7.16193 81.8188 6.79598C82.237 6.43003 82.8643 6.27319 83.7531 6.27319H85.3737V5.80269C85.3737 5.2799 85.2691 4.91394 85.0078 4.70483C84.7464 4.49571 84.3804 4.33887 83.8053 4.33887C83.2826 4.33887 82.9166 4.44343 82.7075 4.60026C82.4461 4.7571 82.3415 5.0185 82.2893 5.2799H81.4528C81.4528 5.07078 81.5574 4.86166 81.6619 4.65255C81.7665 4.44343 81.9233 4.23431 82.1324 4.07748C82.3415 3.92064 82.5507 3.81609 82.8643 3.71153C83.178 3.60698 83.4917 3.55469 83.8576 3.55469C84.6941 3.55469 85.2692 3.76381 85.6351 4.12976C86.0011 4.49571 86.2102 5.07078 86.2102 5.80269V9.93271H85.5828L85.4783 8.88713C85.2169 9.25308 84.9032 9.56676 84.5372 9.7236C84.119 9.93271 83.7008 10.0373 83.2826 10.0373ZM83.3348 9.25309C83.6485 9.25309 83.9099 9.2008 84.1713 9.09624C84.4327 8.99169 84.6418 8.88713 84.7986 8.67802C85.0078 8.52118 85.1123 8.31206 85.2169 8.05067C85.3214 7.78927 85.3737 7.52788 85.3737 7.26649V6.95281H83.8053C83.178 6.95281 82.7075 7.05737 82.4461 7.26649C82.1847 7.4756 82.0279 7.78928 82.0279 8.15523C82.0279 8.4689 82.1324 8.7303 82.3415 8.93941C82.5507 9.14853 82.8643 9.25309 83.3348 9.25309Z" fill="#ffffff"/>
<path d="M91.4375 3.65625H92.274V6.27019H93.4241L95.2538 3.65625H96.2471L94.1037 6.63615L96.5085 9.92971H95.5152L93.4764 7.05437H92.3262V9.92971H91.4898V3.65625H91.4375Z" fill="#ffffff"/>
<path d="M99.9583 10.0397C99.1218 10.0397 98.4422 9.77828 97.9194 9.25549C97.3966 8.73271 97.1875 8.00079 97.1875 7.0075V6.58927C97.1875 6.11876 97.2398 5.70054 97.3966 5.33458C97.5012 4.96863 97.7103 4.65495 97.9717 4.39356C98.2331 4.13216 98.4945 3.92304 98.8604 3.81849C99.1741 3.66165 99.5923 3.60938 100.011 3.60938C100.847 3.60938 101.527 3.87077 102.049 4.39356C102.572 4.91634 102.781 5.64826 102.781 6.64155V7.05978C102.781 7.53029 102.729 7.94851 102.572 8.31447C102.468 8.68042 102.259 8.9941 101.997 9.25549C101.736 9.51689 101.474 9.72599 101.108 9.83055C100.742 9.93511 100.376 10.0397 99.9583 10.0397ZM99.9583 9.25549C100.533 9.25549 101.004 9.04638 101.37 8.68042C101.736 8.31447 101.893 7.7394 101.893 7.0075V6.58927C101.893 5.85737 101.736 5.2823 101.37 4.91634C101.004 4.55039 100.533 4.34127 100.011 4.34127C99.4355 4.34127 98.965 4.55039 98.599 4.91634C98.2331 5.2823 98.0762 5.85737 98.0762 6.58927V7.0075C98.0762 7.7394 98.2331 8.31447 98.599 8.68042C98.9127 9.09865 99.3832 9.25549 99.9583 9.25549Z" fill="#ffffff"/>
<path d="M104.457 3.65625H105.659L107.646 7.52488L109.633 3.65625H110.783V9.92971H109.946V4.70183L108.012 8.41362H107.176L105.241 4.70183V9.92971H104.457V3.65625Z" fill="#ffffff"/>
<path d="M112.871 3.65625H117.785V9.92971H116.949V4.38815H113.708V9.92971H112.871V3.65625Z" fill="#ffffff"/>
<path d="M121.497 10.0373C120.818 10.0373 120.295 9.88042 119.929 9.56675C119.563 9.25308 119.406 8.78258 119.406 8.20751C119.406 7.63245 119.615 7.16193 120.034 6.79598C120.452 6.43003 121.079 6.27319 121.968 6.27319H123.589V5.80269C123.589 5.2799 123.484 4.91394 123.223 4.70483C122.961 4.49571 122.595 4.33887 122.02 4.33887C121.497 4.33887 121.131 4.44343 120.922 4.60026C120.661 4.7571 120.556 5.0185 120.504 5.2799H119.668C119.668 5.07078 119.772 4.86166 119.877 4.65255C119.981 4.44343 120.138 4.23431 120.347 4.07748C120.556 3.92064 120.765 3.81609 121.079 3.71153C121.393 3.60698 121.707 3.55469 122.072 3.55469C122.909 3.55469 123.484 3.76381 123.85 4.12976C124.216 4.49571 124.425 5.07078 124.425 5.80269V9.93271H123.798L123.693 8.88713C123.432 9.25308 123.118 9.56676 122.752 9.7236C122.386 9.93271 121.968 10.0373 121.497 10.0373ZM121.55 9.25309C121.863 9.25309 122.125 9.2008 122.386 9.09624C122.648 8.99169 122.857 8.88713 123.013 8.67802C123.223 8.52118 123.327 8.31206 123.432 8.05067C123.536 7.78927 123.589 7.52788 123.589 7.26649V6.95281H122.02C121.393 6.95281 120.922 7.05737 120.661 7.26649C120.4 7.4756 120.243 7.78928 120.243 8.15523C120.243 8.4689 120.347 8.7303 120.556 8.93941C120.818 9.14853 121.131 9.25309 121.55 9.25309Z" fill="#ffffff"/>
<path d="M126.465 3.65625H127.301V6.37475H130.804V3.65625H131.64V9.92971H130.804V7.10665H127.301V9.92971H126.465V3.65625Z" fill="#ffffff"/>
<path d="M133.625 3.65625H134.461V8.98869L137.598 3.65625H138.748V9.92971H137.912V4.59726L134.775 9.92971H133.625V3.65625Z" fill="#ffffff"/>
<path d="M140.84 3.65781H141.676V8.99026L144.813 3.65781H145.963V9.93127H145.127V4.59882L141.99 9.93127H140.84V3.65781ZM143.402 2.87363C142.879 2.87363 142.46 2.7168 142.147 2.40313C141.833 2.08945 141.676 1.67123 141.676 1.14844H142.46C142.46 1.51439 142.513 1.77577 142.67 1.98489C142.826 2.14172 143.036 2.24628 143.349 2.24628C143.663 2.24628 143.872 2.14172 144.029 1.98489C144.186 1.82805 144.238 1.56667 144.238 1.14844H145.022C145.022 1.67123 144.865 2.08945 144.552 2.40313C144.238 2.7168 143.924 2.87363 143.402 2.87363Z" fill="#ffffff"/>
<path d="M48.6211 21.4297H51.5487V30.2125H51.601L56.1492 21.4297H59.9133V33.9766H56.9857V25.1938H56.9334L52.3852 33.9766H48.6211V21.4297Z" fill="#ffffff"/>
<path d="M62.8945 21.4297H65.8221V26.2393H71.3114V21.4297H74.239V33.9766H71.3114V28.9055H65.8221V33.9766H62.8945V21.4297Z" fill="#ffffff"/>
<path d="M82.342 34.2416C80.5645 34.2416 79.153 33.7188 78.1074 32.6209C77.0619 31.5231 76.5391 29.9547 76.5391 27.8636V27.2885C76.5391 26.2952 76.6959 25.4587 76.9573 24.7268C77.2187 23.9949 77.5846 23.3153 78.1074 22.7925C78.6302 22.2697 79.2053 21.8515 79.9372 21.5901C80.6691 21.3287 81.4533 21.1719 82.342 21.1719C83.1785 21.1719 83.9104 21.2764 84.5377 21.4856C85.1651 21.6947 85.7401 22.0083 86.2106 22.3743C86.6811 22.7402 87.0471 23.2107 87.3085 23.7335C87.5699 24.2563 87.779 24.8314 87.8836 25.4065H84.7991C84.59 24.936 84.3286 24.5177 83.9626 24.2563C83.5967 23.9426 83.0739 23.8381 82.4466 23.8381C81.6624 23.8381 80.9828 24.0995 80.4077 24.6223C79.8849 25.1451 79.5712 26.0338 79.5712 27.2885V27.8636C79.5712 28.5432 79.6235 29.1183 79.7803 29.5888C79.9372 30.0593 80.1463 30.4252 80.4077 30.7389C80.6691 31.0526 80.9827 31.2617 81.2964 31.3662C81.6624 31.5231 82.0283 31.5754 82.3943 31.5754C83.0216 31.5754 83.5444 31.4185 83.9104 31.1048C84.2763 30.7912 84.5377 30.3207 84.7468 29.7456H87.8313C87.7267 30.4252 87.5176 31.0003 87.2562 31.5754C86.9948 32.1504 86.6289 32.6209 86.1584 32.9869C85.6878 33.4051 85.1651 33.7188 84.4854 33.9279C83.9104 34.137 83.1785 34.2416 82.342 34.2416Z" fill="#ffffff"/>
<path d="M92.7968 24.0959H88.9805V21.4297H99.5408V24.0959H95.7244V33.9766H92.7968V24.0959Z" fill="#ffffff"/>
<path d="M101.318 21.4333H103.566L103.827 22.9494H103.88C104.925 21.7992 106.232 21.1719 107.905 21.1719C108.689 21.1719 109.421 21.2764 110.048 21.5378C110.676 21.7992 111.251 22.1652 111.669 22.688C112.14 23.2107 112.453 23.8381 112.715 24.6223C112.976 25.4065 113.081 26.2952 113.081 27.393V27.9681C113.081 30.0593 112.61 31.6276 111.617 32.6732C110.676 33.7188 109.421 34.2416 107.853 34.2416C107.121 34.2416 106.441 34.0847 105.814 33.8233C105.187 33.562 104.664 33.196 104.246 32.7255H104.193V38.9989H101.266V21.4333H101.318ZM107.121 31.5754C108.01 31.5754 108.741 31.314 109.264 30.7389C109.787 30.1638 110.048 29.2751 110.048 28.0204V27.4453C110.048 26.2429 109.787 25.3019 109.264 24.7268C108.741 24.1518 108.01 23.8381 107.121 23.8381C106.232 23.8381 105.5 24.1518 104.977 24.7268C104.455 25.3019 104.193 26.2429 104.193 27.4976V28.0727C104.193 29.2751 104.455 30.1638 104.977 30.7389C105.552 31.2617 106.232 31.5754 107.121 31.5754Z" fill="#ffffff"/>
<path d="M118.778 33.9766L113.707 21.4297H116.844L120.294 30.3694H120.346L123.535 21.4297H126.515L119.876 38.9954H116.896L118.778 33.9766Z" fill="#ffffff"/>
<path d="M128.24 21.4297H132.579L135.245 28.2782H135.297L137.964 21.4297H142.094V33.9766H139.166V24.8278H139.114L136.604 31.2058H133.677L131.167 24.8278H131.115V33.9766H128.188V21.4297H128.24Z" fill="#ffffff"/>
<path d="M150.407 34.2392C148.525 34.2392 147.061 33.7164 145.963 32.6185C144.917 31.5207 144.395 30.0046 144.395 27.9657V27.3906C144.395 26.3973 144.551 25.5086 144.813 24.7244C145.074 23.9402 145.492 23.3129 146.015 22.7378C146.538 22.215 147.165 21.7968 147.897 21.5354C148.629 21.274 149.466 21.1172 150.354 21.1172C152.184 21.1172 153.596 21.64 154.693 22.7378C155.739 23.8357 156.262 25.4041 156.262 27.4952V28.5408H147.427C147.531 29.6386 147.793 30.4228 148.263 30.9456C148.734 31.4684 149.466 31.6775 150.407 31.6775C151.923 31.6775 152.811 31.1547 153.177 30.1091H156.21C155.948 31.4161 155.269 32.4094 154.328 33.089C153.177 33.8732 151.923 34.2392 150.407 34.2392ZM150.302 23.6266C149.413 23.6266 148.734 23.8357 148.263 24.3062C147.793 24.7244 147.479 25.4563 147.374 26.4496H153.23C153.125 25.4563 152.811 24.7244 152.341 24.3062C151.87 23.8357 151.191 23.6266 150.302 23.6266Z" fill="#ffffff"/>
<path d="M158.562 21.4297H161.49V26.2393H166.979V21.4297H169.907V33.9766H166.979V28.9055H161.49V33.9766H158.562V21.4297Z" fill="#ffffff"/>
<path d="M175.449 24.0959H171.633V21.4297H182.193V24.0959H178.377V33.9766H175.449V24.0959Z" fill="#ffffff"/>
</g>
<defs>
<clipPath id="clip0_3025_13309">
<rect width="182" height="39" fill="white"/>
</clipPath>
</defs>
</svg>
